<svg width="128" height="128" xmlns="http://www.w3.org/2000/svg"><g><path d="M912.9 394.7h-79.3c-13.7-37.7-34-72.2-59.2-102.4l39.7-68.8c10.8-18.7 4.4-42.6-14.3-53.4L664.3 91.8c-18.7-10.8-42.6-4.4-53.4 14.3L571.1 175c-19.2-3.3-38.9-5.2-59.1-5.2-20.2 0-39.9 1.8-59.1 5.2l-39.7-68.8c-10.8-18.7-34.7-25.1-53.4-14.3l-135.5 78.2c-18.7 10.8-25.1 34.7-14.3 53.4l39.7 68.8c-25.3 30.2-45.5 64.7-59.2 102.4h-79.3c-21.6 0-39.1 17.5-39.1 39.1v156.4c0 21.6 17.5 39.1 39.1 39.1h79.3c13.7 37.7 34 72.2 59.2 102.4L210 800.5c-10.8 18.7-4.4 42.6 14.3 53.4l135.5 78.2c18.7 10.8 42.6 4.4 53.4-14.3l39.7-68.8c19.2 3.3 38.9 5.2 59.1 5.2 20.2 0 39.9-1.8 59.1-5.2l39.7 68.8c10.8 18.7 34.7 25.1 53.4 14.3l135.5-78.2c18.7-10.8 25.1-34.7 14.3-53.4l-39.7-68.8c25.3-30.2 45.5-64.7 59.2-102.4h79.3c21.6 0 39.1-17.5 39.1-39.1V433.8c0.1-21.6-17.4-39.1-39-39.1z m0 195.5h-108c-13.9 52.3-41.7 98.9-78.8 136l54.2 93.8-135.5 78.2-54-93.6c-25.1 6.7-51.4 10.4-78.7 10.4-27.2 0-53.6-3.7-78.7-10.4l-54 93.6L243.9 820l54.2-93.8c-37.2-37.1-64.9-83.7-78.8-136h-108V433.8h108c13.9-52.3 41.7-98.9 78.8-136L243.9 204l135.5-78.2 54 93.6c25.1-6.7 51.4-10.4 78.7-10.4 27.2 0 53.6 3.7 78.7 10.4l54-93.6L780.3 204 726 297.8c37.2 37.1 64.9 83.7 78.8 136h108v156.4zM512 326.2c-102.6 0-185.8 83.2-185.8 185.8 0 102.6 83.2 185.8 185.8 185.8 102.6 0 185.8-83.2 185.8-185.8 0-102.6-83.2-185.8-185.8-185.8z m0 332.5c-81 0-146.7-65.7-146.7-146.7 0-81 65.7-146.7 146.7-146.7 81 0 146.7 65.7 146.7 146.7 0 81-65.7 146.7-146.7 146.7z" p-id="1145"></path></g></svg>